<svg width="359" height="358" viewBox="0 0 359 358" fill="none" xmlns="http://www.w3.org/2000/svg">
<rect x="0.837158" y="1" width="43" height="230" fill="#FD624D"/>
<rect x="128.163" y="309.925" width="43" height="158.925" transform="rotate(179.883 128.163 309.925)" fill="#FD624D"/>
<g filter="url(#filter0_d_32_1793)">
<rect x="104.186" y="188" width="43" height="103.349" transform="rotate(89.867 104.186 188)" fill="#FD624D"/>
</g>
<rect x="230.837" width="43" height="230" fill="#FD624D"/>
<rect x="358.163" y="308.925" width="43" height="158.925" transform="rotate(179.883 358.163 308.925)" fill="#FD624D"/>
<g filter="url(#filter1_d_32_1793)">
<rect x="334.186" y="187" width="43" height="103.349" transform="rotate(89.867 334.186 187)" fill="#FD624D"/>
</g>
<path d="M207.837 262C207.837 287.321 203.538 309.683 197.045 325.267C193.787 333.085 190.213 338.629 186.858 342.034C183.545 345.398 181.18 346 179.837 346C178.495 346 176.129 345.398 172.816 342.034C169.461 338.629 165.887 333.085 162.63 325.267C156.136 309.683 151.837 287.321 151.837 262C151.837 236.679 156.136 214.317 162.63 198.733C165.887 190.915 169.461 185.371 172.816 181.966C176.129 178.602 178.495 178 179.837 178C181.18 178 183.545 178.602 186.858 181.966C190.213 185.371 193.787 190.915 197.045 198.733C203.538 214.317 207.837 236.679 207.837 262Z" stroke="#FE7866" stroke-width="24"/>
<defs>
<filter id="filter0_d_32_1793" x="0.837158" y="184.7" width="116.749" height="51.8397" filterUnits="userSpaceOnUse" color-interpolation-filters="sRGB">
<feFlood flood-opacity="0" result="BackgroundImageFix"/>
<feColorMatrix in="SourceAlpha" type="matrix" values="0 0 0 0 0 0 0 0 0 0 0 0 0 0 0 0 0 0 127 0" result="hardAlpha"/>
<feMorphology radius="1" operator="erode" in="SourceAlpha" result="effect1_dropShadow_32_1793"/>
<feOffset dx="9" dy="1"/>
<feGaussianBlur stdDeviation="2.65"/>
<feComposite in2="hardAlpha" operator="out"/>
<feColorMatrix type="matrix" values="0 0 0 0 0 0 0 0 0 0 0 0 0 0 0 0 0 0 0.25 0"/>
<feBlend mode="normal" in2="BackgroundImageFix" result="effect1_dropShadow_32_1793"/>
<feBlend mode="normal" in="SourceGraphic" in2="effect1_dropShadow_32_1793" result="shape"/>
</filter>
<filter id="filter1_d_32_1793" x="230.837" y="183.7" width="116.749" height="51.8397" filterUnits="userSpaceOnUse" color-interpolation-filters="sRGB">
<feFlood flood-opacity="0" result="BackgroundImageFix"/>
<feColorMatrix in="SourceAlpha" type="matrix" values="0 0 0 0 0 0 0 0 0 0 0 0 0 0 0 0 0 0 127 0" result="hardAlpha"/>
<feMorphology radius="1" operator="erode" in="SourceAlpha" result="effect1_dropShadow_32_1793"/>
<feOffset dx="9" dy="1"/>
<feGaussianBlur stdDeviation="2.65"/>
<feComposite in2="hardAlpha" operator="out"/>
<feColorMatrix type="matrix" values="0 0 0 0 0 0 0 0 0 0 0 0 0 0 0 0 0 0 0.25 0"/>
<feBlend mode="normal" in2="BackgroundImageFix" result="effect1_dropShadow_32_1793"/>
<feBlend mode="normal" in="SourceGraphic" in2="effect1_dropShadow_32_1793" result="shape"/>
</filter>
</defs>
</svg>
